<svg width="820" height="360" viewBox="0 0 820 360" fill="none" xmlns="http://www.w3.org/2000/svg">
<rect width="820" height="360" fill="white"/>
<rect x="5" y="5" width="810" height="350" fill="white" stroke="#1864FF" stroke-width="10"/>
<path d="M143.734 226V123.625H176.711C185.758 123.625 193.891 125.688 201.109 129.812C208.328 133.891 213.953 139.68 217.984 147.18C222.062 154.633 224.125 163 224.172 172.281V176.992C224.172 186.367 222.18 194.781 218.195 202.234C214.258 209.641 208.68 215.453 201.461 219.672C194.289 223.844 186.273 225.953 177.414 226H143.734ZM168.414 142.68V207.016H176.992C184.07 207.016 189.508 204.508 193.305 199.492C197.102 194.43 199 186.93 199 176.992V172.562C199 162.672 197.102 155.219 193.305 150.203C189.508 145.188 183.977 142.68 176.711 142.68H168.414ZM278.594 226C277.75 224.453 277 222.18 276.344 219.18C271.984 224.664 265.891 227.406 258.062 227.406C250.891 227.406 244.797 225.25 239.781 220.938C234.766 216.578 232.258 211.117 232.258 204.555C232.258 196.305 235.305 190.07 241.398 185.852C247.492 181.633 256.352 179.523 267.977 179.523H275.289V175.516C275.289 168.531 272.266 165.039 266.219 165.039C260.594 165.039 257.781 167.805 257.781 173.336H234.086C234.086 165.977 237.203 160 243.438 155.406C249.719 150.812 257.711 148.516 267.414 148.516C277.117 148.516 284.781 150.883 290.406 155.617C296.031 160.352 298.914 166.844 299.055 175.094V208.773C299.148 215.758 300.227 221.102 302.289 224.805V226H278.594ZM263.758 210.531C266.711 210.531 269.148 209.898 271.07 208.633C273.039 207.367 274.445 205.938 275.289 204.344V192.18H268.398C260.148 192.18 256.023 195.883 256.023 203.289C256.023 205.445 256.75 207.203 258.203 208.562C259.656 209.875 261.508 210.531 263.758 210.531ZM337.234 226H313.469V149.922H337.234V226ZM312.062 130.305C312.062 126.93 313.281 124.164 315.719 122.008C318.156 119.852 321.32 118.773 325.211 118.773C329.102 118.773 332.266 119.852 334.703 122.008C337.141 124.164 338.359 126.93 338.359 130.305C338.359 133.68 337.141 136.445 334.703 138.602C332.266 140.758 329.102 141.836 325.211 141.836C321.32 141.836 318.156 140.758 315.719 138.602C313.281 136.445 312.062 133.68 312.062 130.305ZM376.891 226H353.125V118H376.891V226ZM421.961 192.812L434.617 149.922H460L428.992 238.727L427.656 241.961C423.25 251.805 415.469 256.727 404.312 256.727C401.219 256.727 397.961 256.258 394.539 255.32V238.375H397.633C400.961 238.375 403.492 237.883 405.227 236.898C407.008 235.961 408.32 234.25 409.164 231.766L411.062 226.703L384.625 149.922H409.938L421.961 192.812ZM583.469 123.625V190.633C583.469 198.227 581.852 204.812 578.617 210.391C575.383 215.922 570.742 220.141 564.695 223.047C558.648 225.953 551.5 227.406 543.25 227.406C530.781 227.406 520.961 224.172 513.789 217.703C506.617 211.234 502.961 202.375 502.82 191.125V123.625H527.641V191.617C527.922 202.82 533.125 208.422 543.25 208.422C548.359 208.422 552.227 207.016 554.852 204.203C557.477 201.391 558.789 196.82 558.789 190.492V123.625H583.469ZM625.234 226H600.625V123.625H625.234V226Z" fill="black"/>
<path d="M144.057 92H139.932V60.7188H144.057V92ZM175.445 85.834C175.445 84.7598 175.037 83.929 174.221 83.3418C173.419 82.7402 172.008 82.2246 169.988 81.7949C167.983 81.3652 166.386 80.8496 165.197 80.248C164.023 79.6465 163.149 78.9303 162.576 78.0996C162.018 77.2689 161.738 76.2806 161.738 75.1348C161.738 73.2298 162.54 71.6185 164.145 70.3008C165.763 68.9831 167.826 68.3242 170.332 68.3242C172.967 68.3242 175.102 69.0046 176.734 70.3652C178.382 71.7259 179.205 73.4661 179.205 75.5859H175.209C175.209 74.4974 174.743 73.5592 173.812 72.7715C172.896 71.9837 171.736 71.5898 170.332 71.5898C168.885 71.5898 167.754 71.9049 166.938 72.5352C166.121 73.1654 165.713 73.9889 165.713 75.0059C165.713 75.9655 166.092 76.6888 166.852 77.1758C167.611 77.6628 168.979 78.1283 170.955 78.5723C172.946 79.0163 174.557 79.5462 175.789 80.1621C177.021 80.778 177.93 81.5228 178.518 82.3965C179.119 83.2559 179.42 84.3086 179.42 85.5547C179.42 87.6315 178.589 89.3001 176.928 90.5605C175.266 91.8066 173.111 92.4297 170.461 92.4297C168.599 92.4297 166.952 92.1003 165.52 91.4414C164.087 90.7826 162.963 89.8659 162.146 88.6914C161.344 87.5026 160.943 86.2207 160.943 84.8457H164.918C164.99 86.1777 165.52 87.2376 166.508 88.0254C167.51 88.7988 168.828 89.1855 170.461 89.1855C171.965 89.1855 173.168 88.8848 174.07 88.2832C174.987 87.6673 175.445 86.8509 175.445 85.834ZM189.99 63.125V68.7539H194.33V71.8262H189.99V86.2422C189.99 87.1732 190.184 87.875 190.57 88.3477C190.957 88.806 191.616 89.0352 192.547 89.0352C193.005 89.0352 193.635 88.9492 194.438 88.7773V92C193.392 92.2865 192.375 92.4297 191.387 92.4297C189.611 92.4297 188.271 91.8926 187.369 90.8184C186.467 89.7441 186.016 88.2188 186.016 86.2422V71.8262H181.783V68.7539H186.016V63.125H189.99ZM213.344 92C213.115 91.5417 212.928 90.7253 212.785 89.5508C210.938 91.4701 208.732 92.4297 206.168 92.4297C203.876 92.4297 201.993 91.7852 200.518 90.4961C199.057 89.1927 198.326 87.5456 198.326 85.5547C198.326 83.1341 199.243 81.2578 201.076 79.9258C202.924 78.5794 205.516 77.9062 208.854 77.9062H212.721V76.0801C212.721 74.6908 212.305 73.5879 211.475 72.7715C210.644 71.9408 209.419 71.5254 207.801 71.5254C206.383 71.5254 205.194 71.8835 204.234 72.5996C203.275 73.3158 202.795 74.1823 202.795 75.1992H198.799C198.799 74.0391 199.207 72.9219 200.023 71.8477C200.854 70.7591 201.971 69.8997 203.375 69.2695C204.793 68.6393 206.347 68.3242 208.037 68.3242C210.715 68.3242 212.814 68.9974 214.332 70.3438C215.85 71.6758 216.638 73.5163 216.695 75.8652V86.5645C216.695 88.6986 216.967 90.3958 217.512 91.6562V92H213.344ZM206.748 88.9707C207.994 88.9707 209.176 88.6484 210.293 88.0039C211.41 87.3594 212.219 86.5215 212.721 85.4902V80.7207H209.605C204.736 80.7207 202.301 82.1458 202.301 84.9961C202.301 86.2422 202.716 87.2161 203.547 87.918C204.378 88.6198 205.445 88.9707 206.748 88.9707ZM234.162 72.3203C233.561 72.2201 232.909 72.1699 232.207 72.1699C229.6 72.1699 227.831 73.2799 226.9 75.5V92H222.926V68.7539H226.793L226.857 71.4395C228.161 69.3626 230.008 68.3242 232.4 68.3242C233.174 68.3242 233.761 68.4245 234.162 68.625V72.3203ZM244.303 63.125V68.7539H248.643V71.8262H244.303V86.2422C244.303 87.1732 244.496 87.875 244.883 88.3477C245.27 88.806 245.928 89.0352 246.859 89.0352C247.318 89.0352 247.948 88.9492 248.75 88.7773V92C247.704 92.2865 246.688 92.4297 245.699 92.4297C243.923 92.4297 242.584 91.8926 241.682 90.8184C240.779 89.7441 240.328 88.2188 240.328 86.2422V71.8262H236.096V68.7539H240.328V63.125H244.303ZM262.951 92.4297C259.8 92.4297 257.236 91.3984 255.26 89.3359C253.283 87.2591 252.295 84.4876 252.295 81.0215V80.291C252.295 77.985 252.732 75.9297 253.605 74.125C254.493 72.306 255.725 70.888 257.301 69.8711C258.891 68.8398 260.609 68.3242 262.457 68.3242C265.479 68.3242 267.828 69.3197 269.504 71.3105C271.18 73.3014 272.018 76.1517 272.018 79.8613V81.5156H256.27C256.327 83.8073 256.993 85.6621 258.268 87.0801C259.557 88.4837 261.189 89.1855 263.166 89.1855C264.57 89.1855 265.758 88.8991 266.732 88.3262C267.706 87.7533 268.559 86.9941 269.289 86.0488L271.717 87.9395C269.769 90.9329 266.847 92.4297 262.951 92.4297ZM262.457 71.5898C260.853 71.5898 259.507 72.1771 258.418 73.3516C257.329 74.5117 256.656 76.1445 256.398 78.25H268.043V77.9492C267.928 75.9297 267.384 74.3685 266.41 73.2656C265.436 72.1484 264.118 71.5898 262.457 71.5898ZM275.67 80.1836C275.67 76.6172 276.515 73.7526 278.205 71.5898C279.895 69.4128 282.108 68.3242 284.844 68.3242C287.565 68.3242 289.721 69.2552 291.311 71.1172V59H295.285V92H291.633L291.439 89.5078C289.85 91.4557 287.637 92.4297 284.801 92.4297C282.108 92.4297 279.91 91.3268 278.205 89.1211C276.515 86.9154 275.67 84.0365 275.67 80.4844V80.1836ZM279.645 80.6348C279.645 83.2702 280.189 85.3327 281.277 86.8223C282.366 88.3118 283.87 89.0566 285.789 89.0566C288.31 89.0566 290.15 87.9251 291.311 85.6621V74.9844C290.122 72.793 288.296 71.6973 285.832 71.6973C283.884 71.6973 282.366 72.4492 281.277 73.9531C280.189 75.457 279.645 77.6842 279.645 80.6348Z" fill="black"/>
<path d="M659.759 219C659.563 218.326 659.466 217.359 659.466 216.1C658.841 217.115 657.986 217.901 656.902 218.458C655.818 219.015 654.593 219.293 653.226 219.293C651.761 219.293 650.579 218.897 649.681 218.106C648.792 217.306 648.348 216.266 648.348 214.986C648.348 213.531 649.002 212.369 650.311 211.5C651.629 210.621 653.377 210.172 655.555 210.152H659.466V207.838C659.466 206.51 659.046 205.479 658.206 204.747C657.376 204.015 656.185 203.648 654.632 203.648C653.187 203.648 651.98 204.02 651.014 204.762C650.047 205.504 649.563 206.422 649.563 207.516L648.772 207.486C648.772 206.197 649.339 205.104 650.472 204.205C651.604 203.307 652.991 202.857 654.632 202.857C656.341 202.857 657.698 203.287 658.704 204.146C659.71 204.996 660.228 206.197 660.257 207.75V215.323C660.257 217.062 660.394 218.243 660.667 218.868V219H659.759ZM653.226 218.517C654.71 218.517 655.984 218.185 657.049 217.521C658.123 216.856 658.929 215.924 659.466 214.723V210.958H655.804C653.538 210.958 651.805 211.407 650.604 212.306C649.627 213.038 649.139 213.951 649.139 215.045C649.139 216.012 649.524 216.832 650.296 217.506C651.067 218.18 652.044 218.517 653.226 218.517ZM664.622 210.914C664.622 208.385 665.154 206.412 666.219 204.996C667.283 203.57 668.743 202.857 670.599 202.857C671.78 202.857 672.83 203.131 673.748 203.678C674.666 204.215 675.403 205.006 675.96 206.051V203.15H676.766V218.722C676.766 220.812 676.229 222.442 675.154 223.614C674.08 224.796 672.62 225.387 670.774 225.387C669.71 225.387 668.733 225.157 667.845 224.698C666.966 224.239 666.214 223.58 665.589 222.721L666.146 222.193C666.761 222.975 667.435 223.57 668.167 223.98C668.899 224.4 669.759 224.61 670.745 224.61C672.376 224.61 673.646 224.112 674.554 223.116C675.462 222.13 675.931 220.733 675.96 218.927V216.495C675.413 217.394 674.671 218.087 673.733 218.575C672.806 219.054 671.751 219.293 670.569 219.293C668.733 219.293 667.283 218.565 666.219 217.11C665.154 215.655 664.622 213.658 664.622 211.119V210.914ZM665.428 211.222C665.428 213.487 665.877 215.27 666.775 216.568C667.674 217.857 668.934 218.502 670.555 218.502C671.893 218.502 673.03 218.194 673.968 217.579C674.905 216.954 675.569 216.08 675.96 214.957V207.765C675.101 205.021 673.309 203.648 670.584 203.648C668.953 203.648 667.684 204.288 666.775 205.567C665.877 206.847 665.428 208.731 665.428 211.222ZM692.073 219C691.878 218.326 691.78 217.359 691.78 216.1C691.155 217.115 690.301 217.901 689.217 218.458C688.133 219.015 686.907 219.293 685.54 219.293C684.075 219.293 682.894 218.897 681.995 218.106C681.106 217.306 680.662 216.266 680.662 214.986C680.662 213.531 681.316 212.369 682.625 211.5C683.943 210.621 685.691 210.172 687.869 210.152H691.78V207.838C691.78 206.51 691.36 205.479 690.521 204.747C689.69 204.015 688.499 203.648 686.946 203.648C685.501 203.648 684.295 204.02 683.328 204.762C682.361 205.504 681.878 206.422 681.878 207.516L681.087 207.486C681.087 206.197 681.653 205.104 682.786 204.205C683.919 203.307 685.306 202.857 686.946 202.857C688.655 202.857 690.013 203.287 691.019 204.146C692.024 204.996 692.542 206.197 692.571 207.75V215.323C692.571 217.062 692.708 218.243 692.981 218.868V219H692.073ZM685.54 218.517C687.024 218.517 688.299 218.185 689.363 217.521C690.438 216.856 691.243 215.924 691.78 214.723V210.958H688.118C685.853 210.958 684.119 211.407 682.918 212.306C681.941 213.038 681.453 213.951 681.453 215.045C681.453 216.012 681.839 216.832 682.61 217.506C683.382 218.18 684.358 218.517 685.54 218.517ZM698.665 219H697.874V203.15H698.665V219ZM697.464 198.199C697.464 197.975 697.542 197.784 697.698 197.628C697.854 197.462 698.045 197.379 698.27 197.379C698.494 197.379 698.685 197.462 698.841 197.628C699.007 197.784 699.09 197.975 699.09 198.199C699.09 198.424 699.007 198.614 698.841 198.771C698.685 198.927 698.494 199.005 698.27 199.005C698.045 199.005 697.854 198.927 697.698 198.771C697.542 198.614 697.464 198.424 697.464 198.199ZM704.656 206.842C705.174 205.611 705.936 204.64 706.941 203.927C707.947 203.214 709.061 202.857 710.281 202.857C711.98 202.857 713.24 203.341 714.061 204.308C714.891 205.265 715.311 206.715 715.32 208.658V219H714.529V208.629C714.52 206.93 714.173 205.675 713.489 204.864C712.806 204.044 711.722 203.634 710.237 203.634C708.87 203.634 707.684 204.122 706.678 205.099C705.682 206.065 705.008 207.315 704.656 208.849V219H703.865V203.15H704.656V206.842ZM719.935 218.282C719.935 218.058 720.013 217.867 720.169 217.711C720.325 217.545 720.516 217.462 720.74 217.462C720.965 217.462 721.155 217.545 721.312 217.711C721.478 217.867 721.561 218.058 721.561 218.282C721.561 218.507 721.478 218.697 721.312 218.854C721.155 219.01 720.965 219.088 720.74 219.088C720.516 219.088 720.325 219.01 720.169 218.854C720.013 218.697 719.935 218.507 719.935 218.282ZM726.38 218.282C726.38 218.058 726.458 217.867 726.614 217.711C726.771 217.545 726.961 217.462 727.186 217.462C727.41 217.462 727.601 217.545 727.757 217.711C727.923 217.867 728.006 218.058 728.006 218.282C728.006 218.507 727.923 218.697 727.757 218.854C727.601 219.01 727.41 219.088 727.186 219.088C726.961 219.088 726.771 219.01 726.614 218.854C726.458 218.697 726.38 218.507 726.38 218.282ZM732.825 218.282C732.825 218.058 732.903 217.867 733.06 217.711C733.216 217.545 733.406 217.462 733.631 217.462C733.855 217.462 734.046 217.545 734.202 217.711C734.368 217.867 734.451 218.058 734.451 218.282C734.451 218.507 734.368 218.697 734.202 218.854C734.046 219.01 733.855 219.088 733.631 219.088C733.406 219.088 733.216 219.01 733.06 218.854C732.903 218.697 732.825 218.507 732.825 218.282Z" fill="black"/>
</svg>
