<svg width="820" height="360" viewBox="0 0 820 360" fill="none" xmlns="http://www.w3.org/2000/svg">
<rect width="820" height="360" fill="white"/>
<rect x="5" y="5" width="810" height="350" fill="white" stroke="#33ED5C" stroke-width="10"/>
<path d="M184.516 66.625H209.125V136.867C209.125 143.383 207.602 149.195 204.555 154.305C201.555 159.414 197.336 163.375 191.898 166.188C186.508 169 180.484 170.406 173.828 170.406C162.672 170.406 154 167.594 147.812 161.969C141.625 156.344 138.531 148.375 138.531 138.062H163.281C163.281 142.75 164.078 146.148 165.672 148.258C167.312 150.367 170.031 151.422 173.828 151.422C177.25 151.422 179.875 150.156 181.703 147.625C183.578 145.047 184.516 141.461 184.516 136.867V66.625ZM268.961 160.773C263.945 167.195 257.172 170.406 248.641 170.406C240.297 170.406 233.969 167.992 229.656 163.164C225.391 158.289 223.258 151.305 223.258 142.211V92.9219H246.953V142.352C246.953 148.867 250.117 152.125 256.445 152.125C261.883 152.125 265.75 150.18 268.047 146.289V92.9219H291.883V169H269.664L268.961 160.773ZM344.758 147.625C344.758 145.609 343.703 143.992 341.594 142.773C339.484 141.555 335.477 140.289 329.57 138.977C323.664 137.664 318.789 135.953 314.945 133.844C311.102 131.688 308.172 129.086 306.156 126.039C304.141 122.992 303.133 119.5 303.133 115.562C303.133 108.578 306.016 102.836 311.781 98.3359C317.547 93.7891 325.094 91.5156 334.422 91.5156C344.453 91.5156 352.516 93.7891 358.609 98.3359C364.703 102.883 367.75 108.859 367.75 116.266H343.984C343.984 110.172 340.773 107.125 334.352 107.125C331.867 107.125 329.781 107.828 328.094 109.234C326.406 110.594 325.562 112.305 325.562 114.367C325.562 116.477 326.594 118.188 328.656 119.5C330.719 120.812 334 121.891 338.5 122.734C343.047 123.578 347.031 124.586 350.453 125.758C361.891 129.695 367.609 136.75 367.609 146.922C367.609 153.859 364.516 159.508 358.328 163.867C352.188 168.227 344.219 170.406 334.422 170.406C327.906 170.406 322.094 169.234 316.984 166.891C311.875 164.547 307.891 161.359 305.031 157.328C302.172 153.297 300.742 149.055 300.742 144.602H322.891C322.984 148.117 324.156 150.695 326.406 152.336C328.656 153.93 331.539 154.727 335.055 154.727C338.289 154.727 340.703 154.07 342.297 152.758C343.938 151.445 344.758 149.734 344.758 147.625ZM406.352 74.0078V92.9219H418.867V109.375H406.352V144.18C406.352 147.039 406.867 149.031 407.898 150.156C408.93 151.281 410.969 151.844 414.016 151.844C416.359 151.844 418.328 151.703 419.922 151.422V168.367C415.656 169.727 411.203 170.406 406.562 170.406C398.406 170.406 392.383 168.484 388.492 164.641C384.602 160.797 382.656 154.961 382.656 147.133V109.375H372.953V92.9219H382.656V74.0078H406.352ZM461.125 130.398C461.125 118.352 463.727 108.859 468.93 101.922C474.133 94.9844 481.398 91.5156 490.727 91.5156C497.523 91.5156 503.242 94.1875 507.883 99.5312V61H531.648V169H510.344L509.148 160.844C504.273 167.219 498.086 170.406 490.586 170.406C481.539 170.406 474.367 166.938 469.07 160C463.773 153.062 461.125 143.195 461.125 130.398ZM484.82 131.875C484.82 145.375 488.758 152.125 496.633 152.125C501.883 152.125 505.633 149.922 507.883 145.516V116.547C505.727 112.047 502.023 109.797 496.773 109.797C489.461 109.797 485.5 115.703 484.891 127.516L484.82 131.875ZM542.125 130.258C542.125 122.664 543.602 115.914 546.555 110.008C549.508 104.055 553.75 99.4844 559.281 96.2969C564.812 93.1094 571.305 91.5156 578.758 91.5156C590.148 91.5156 599.125 95.0547 605.688 102.133C612.25 109.164 615.531 118.75 615.531 130.891V131.734C615.531 143.594 612.227 153.016 605.617 160C599.055 166.938 590.148 170.406 578.898 170.406C568.07 170.406 559.375 167.172 552.812 160.703C546.25 154.188 542.711 145.375 542.195 134.266L542.125 130.258ZM565.82 131.734C565.82 138.766 566.922 143.922 569.125 147.203C571.328 150.484 574.586 152.125 578.898 152.125C587.336 152.125 591.648 145.633 591.836 132.648V130.258C591.836 116.617 587.477 109.797 578.758 109.797C570.836 109.797 566.547 115.68 565.891 127.445L565.82 131.734ZM686.828 169H663.062V92.9219H686.828V169ZM661.656 73.3047C661.656 69.9297 662.875 67.1641 665.312 65.0078C667.75 62.8516 670.914 61.7734 674.805 61.7734C678.695 61.7734 681.859 62.8516 684.297 65.0078C686.734 67.1641 687.953 69.9297 687.953 73.3047C687.953 76.6797 686.734 79.4453 684.297 81.6016C681.859 83.7578 678.695 84.8359 674.805 84.8359C670.914 84.8359 667.75 83.7578 665.312 81.6016C662.875 79.4453 661.656 76.6797 661.656 73.3047ZM729.086 74.0078V92.9219H741.602V109.375H729.086V144.18C729.086 147.039 729.602 149.031 730.633 150.156C731.664 151.281 733.703 151.844 736.75 151.844C739.094 151.844 741.062 151.703 742.656 151.422V168.367C738.391 169.727 733.938 170.406 729.297 170.406C721.141 170.406 715.117 168.484 711.227 164.641C707.336 160.797 705.391 154.961 705.391 147.133V109.375H695.688V92.9219H705.391V74.0078H729.086ZM765.648 146.008C769.398 146.008 772.516 147.133 775 149.383C777.484 151.586 778.727 154.422 778.727 157.891C778.727 161.359 777.484 164.219 775 166.469C772.516 168.672 769.398 169.773 765.648 169.773C761.852 169.773 758.711 168.648 756.227 166.398C753.789 164.148 752.57 161.312 752.57 157.891C752.57 154.469 753.789 151.633 756.227 149.383C758.711 147.133 761.852 146.008 765.648 146.008Z" fill="black"/>
</svg>
