<svg width="820" height="360" viewBox="0 0 820 360" fill="none" xmlns="http://www.w3.org/2000/svg">
<rect width="820" height="360" fill="white"/>
<rect x="5" y="5" width="810" height="350" fill="white" stroke="#FFBE18" stroke-width="10"/>
<path d="M51.959 112.719L62.1855 138.242L72.4121 112.719H77.7617V144H73.6367V131.818L74.0234 118.67L63.7539 144H60.5957L50.3477 118.734L50.7559 131.818V144H46.6309V112.719H51.959ZM92.0273 138.178L97.4414 120.754H101.695L92.3496 147.588C90.903 151.455 88.6042 153.389 85.4531 153.389L84.7012 153.324L83.2188 153.045V149.822L84.293 149.908C85.6393 149.908 86.6849 149.636 87.4297 149.092C88.1888 148.548 88.8118 147.552 89.2988 146.105L90.1797 143.742L81.8867 120.754H86.2266L92.0273 138.178ZM137.553 116.113H127.498V144H123.395V116.113H113.361V112.719H137.553V116.113ZM165.654 129.369C165.654 132.434 165.139 135.113 164.107 137.404C163.076 139.682 161.615 141.422 159.725 142.625C157.834 143.828 155.628 144.43 153.107 144.43C150.644 144.43 148.46 143.828 146.555 142.625C144.65 141.408 143.167 139.682 142.107 137.447C141.062 135.199 140.525 132.599 140.496 129.648V127.393C140.496 124.385 141.019 121.728 142.064 119.422C143.11 117.116 144.585 115.354 146.49 114.137C148.41 112.905 150.601 112.289 153.064 112.289C155.571 112.289 157.777 112.898 159.682 114.115C161.601 115.318 163.076 117.073 164.107 119.379C165.139 121.671 165.654 124.342 165.654 127.393V129.369ZM161.551 127.35C161.551 123.64 160.806 120.797 159.316 118.82C157.827 116.829 155.743 115.834 153.064 115.834C150.458 115.834 148.402 116.829 146.898 118.82C145.409 120.797 144.643 123.547 144.6 127.07V129.369C144.6 132.964 145.352 135.793 146.855 137.855C148.374 139.904 150.458 140.928 153.107 140.928C155.771 140.928 157.834 139.961 159.295 138.027C160.756 136.079 161.508 133.294 161.551 129.67V127.35ZM175.967 131.754V144H171.842V112.719H183.379C186.802 112.719 189.48 113.592 191.414 115.34C193.362 117.087 194.336 119.4 194.336 122.279C194.336 125.316 193.383 127.658 191.479 129.305C189.588 130.938 186.874 131.754 183.336 131.754H175.967ZM175.967 128.381H183.379C185.585 128.381 187.275 127.865 188.449 126.834C189.624 125.788 190.211 124.285 190.211 122.322C190.211 120.46 189.624 118.971 188.449 117.854C187.275 116.736 185.663 116.156 183.615 116.113H175.967V128.381ZM211.309 128.316L212.898 112.719H228.926V116.393H216.271L215.326 124.922C216.859 124.02 218.599 123.568 220.547 123.568C223.397 123.568 225.66 124.514 227.336 126.404C229.012 128.281 229.85 130.823 229.85 134.031C229.85 137.254 228.976 139.796 227.229 141.658C225.495 143.506 223.068 144.43 219.945 144.43C217.181 144.43 214.925 143.663 213.178 142.131C211.43 140.598 210.435 138.479 210.191 135.771H213.951C214.195 137.562 214.832 138.915 215.863 139.832C216.895 140.734 218.255 141.186 219.945 141.186C221.793 141.186 223.24 140.555 224.285 139.295C225.345 138.035 225.875 136.294 225.875 134.074C225.875 131.983 225.302 130.307 224.156 129.047C223.025 127.772 221.514 127.135 219.623 127.135C217.89 127.135 216.529 127.514 215.541 128.273L214.488 129.133L211.309 128.316Z" fill="black"/>
<path d="M68.7344 295V192.625H105.508C118.68 192.625 128.688 195.039 135.531 199.867C142.422 204.695 145.867 211.703 145.867 220.891C145.867 226.188 144.648 230.711 142.211 234.461C139.773 238.211 136.188 240.977 131.453 242.758C136.797 244.164 140.898 246.789 143.758 250.633C146.617 254.477 148.047 259.164 148.047 264.695C148.047 274.727 144.859 282.273 138.484 287.336C132.156 292.352 122.758 294.906 110.289 295H68.7344ZM93.4141 251.477V276.016H109.586C114.039 276.016 117.461 275.008 119.852 272.992C122.242 270.93 123.438 268.047 123.438 264.344C123.438 255.812 119.195 251.523 110.711 251.477H93.4141ZM93.4141 235.305H106.281C111.672 235.258 115.516 234.273 117.812 232.352C120.109 230.43 121.258 227.594 121.258 223.844C121.258 219.531 120.016 216.438 117.531 214.562C115.047 212.641 111.039 211.68 105.508 211.68H93.4141V235.305ZM289.98 251.617H251.167V276.016H297.011V295H226.488V192.625H297.152V211.68H251.167V233.266H289.98V251.617ZM435.358 251.617H396.545V276.016H442.389V295H371.866V192.625H442.53V211.68H396.545V233.266H435.358V251.617ZM555.283 258.859H541.923V295H517.244V192.625H557.533C569.673 192.625 579.166 195.32 586.009 200.711C592.853 206.102 596.275 213.719 596.275 223.562C596.275 230.688 594.822 236.594 591.916 241.281C589.056 245.969 584.556 249.766 578.416 252.672L599.791 293.945V295H573.353L555.283 258.859ZM541.923 239.805H557.533C562.22 239.805 565.736 238.586 568.08 236.148C570.47 233.664 571.666 230.219 571.666 225.812C571.666 221.406 570.47 217.961 568.08 215.477C565.689 212.945 562.173 211.68 557.533 211.68H541.923V239.805ZM728.786 267.789C728.786 264.18 727.497 261.367 724.919 259.352C722.388 257.336 717.911 255.25 711.489 253.094C705.067 250.938 699.817 248.852 695.739 246.836C682.473 240.32 675.841 231.367 675.841 219.977C675.841 214.305 677.481 209.312 680.763 205C684.091 200.641 688.778 197.266 694.825 194.875C700.872 192.438 707.669 191.219 715.216 191.219C722.575 191.219 729.161 192.531 734.973 195.156C740.833 197.781 745.38 201.531 748.614 206.406C751.848 211.234 753.466 216.766 753.466 223H728.856C728.856 218.828 727.567 215.594 724.989 213.297C722.458 211 719.013 209.852 714.653 209.852C710.247 209.852 706.755 210.836 704.177 212.805C701.645 214.727 700.38 217.188 700.38 220.188C700.38 222.812 701.786 225.203 704.598 227.359C707.411 229.469 712.356 231.672 719.434 233.969C726.513 236.219 732.325 238.656 736.872 241.281C747.934 247.656 753.466 256.445 753.466 267.648C753.466 276.602 750.091 283.633 743.341 288.742C736.591 293.852 727.333 296.406 715.567 296.406C707.27 296.406 699.747 294.93 692.997 291.977C686.294 288.977 681.231 284.898 677.809 279.742C674.434 274.539 672.747 268.562 672.747 261.812H697.497C697.497 267.297 698.903 271.352 701.716 273.977C704.575 276.555 709.192 277.844 715.567 277.844C719.645 277.844 722.856 276.977 725.2 275.242C727.591 273.461 728.786 270.977 728.786 267.789Z" fill="black"/>
</svg>
