<svg width="1024" height="512" viewBox="0 0 1024 512" fill="none" xmlns="http://www.w3.org/2000/svg">
<g clip-path="url(#clip0)">
<path d="M0 0H1024V512H0V0Z" fill="white"/>
<path d="M111.48 357.072C111.48 371.664 113.112 382.224 116.376 388.752C119.64 395.088 124.824 398.256 131.928 398.256C139.224 398.256 145.656 392.88 151.224 382.128C156.792 371.184 159.576 355.92 159.576 336.336C159.576 316.56 156.6 301.392 150.648 290.832C144.888 280.272 138.072 274.992 130.2 274.992C122.328 274.992 116.088 279.504 111.48 288.528V357.072ZM179.16 391.92C172.056 396.528 165.144 399.792 158.424 401.712C151.704 403.632 145.08 404.592 138.552 404.592C132.216 404.592 126.36 403.44 120.984 401.136C115.608 398.64 111.288 396.048 108.024 393.36C104.952 390.48 101.496 387.888 97.656 385.584C93.816 383.088 90.168 381.84 86.712 381.84C83.256 381.84 80.184 383.76 77.496 387.6C75 391.44 73.752 396.24 73.752 402H68.28V214.8H53.88V209.04H111.48V279.888C114.552 274.704 119.544 270.672 126.456 267.792C133.56 264.72 140.952 263.184 148.632 263.184C163.224 263.184 175.896 269.616 186.648 282.48C197.592 295.152 203.064 312.912 203.064 335.76C203.064 349.2 200.856 360.72 196.44 370.32C192.024 379.92 186.264 387.12 179.16 391.92ZM362.794 396.24C360.874 398.16 357.226 399.888 351.85 401.424C346.474 402.768 340.234 403.44 333.13 403.44C317.386 403.44 307.498 398.736 303.466 389.328C293.866 399.312 279.178 404.304 259.402 404.304C248.842 404.304 240.106 401.904 233.194 397.104C226.474 392.112 223.114 384.816 223.114 375.216C223.114 362.352 228.106 352.464 238.09 345.552C248.074 338.448 265.546 333.456 290.506 330.576L302.026 329.136V315.024C302.026 298.32 300.778 287.088 298.282 281.328C295.786 275.568 290.794 272.688 283.306 272.688C276.01 272.688 271.306 273.744 269.194 275.856C267.082 277.776 266.314 280.08 266.89 282.768C267.466 285.264 268.426 288.624 269.77 292.848C271.114 297.072 271.786 300.432 271.786 302.928C271.786 308.88 269.674 313.968 265.45 318.192C261.418 322.224 256.426 324.24 250.474 324.24C244.714 324.24 239.722 322.224 235.498 318.192C231.274 313.968 229.162 308.88 229.162 302.928C229.162 293.136 234.154 284.784 244.138 277.872C254.314 270.768 269.386 267.216 289.354 267.216C309.514 267.216 323.818 271.152 332.266 279.024C340.906 286.896 345.226 300.816 345.226 320.784V372.624C345.226 382.8 346.474 389.232 348.97 391.92C351.466 394.416 356.074 394.896 362.794 393.36V396.24ZM263.146 369.456C264.106 376.752 266.794 382.416 271.21 386.448C275.626 390.288 280.714 392.208 286.474 392.208C292.426 392.208 297.61 389.328 302.026 383.568V334.608L291.658 336.048C282.826 337.2 275.626 340.56 270.058 346.128C264.682 351.696 262.378 359.472 263.146 369.456ZM437.651 396.24H452.051V402H380.051V396.24H394.451V214.8H380.051V209.04H437.651V396.24ZM611.981 396.24C610.061 398.16 606.413 399.888 601.037 401.424C595.661 402.768 589.421 403.44 582.317 403.44C566.573 403.44 556.685 398.736 552.653 389.328C543.053 399.312 528.365 404.304 508.589 404.304C498.029 404.304 489.293 401.904 482.381 397.104C475.661 392.112 472.301 384.816 472.301 375.216C472.301 362.352 477.293 352.464 487.277 345.552C497.261 338.448 514.733 333.456 539.693 330.576L551.213 329.136V315.024C551.213 298.32 549.965 287.088 547.469 281.328C544.973 275.568 539.981 272.688 532.493 272.688C525.197 272.688 520.493 273.744 518.381 275.856C516.269 277.776 515.501 280.08 516.077 282.768C516.653 285.264 517.613 288.624 518.957 292.848C520.301 297.072 520.973 300.432 520.973 302.928C520.973 308.88 518.861 313.968 514.637 318.192C510.605 322.224 505.613 324.24 499.661 324.24C493.901 324.24 488.909 322.224 484.685 318.192C480.461 313.968 478.349 308.88 478.349 302.928C478.349 293.136 483.341 284.784 493.325 277.872C503.501 270.768 518.573 267.216 538.541 267.216C558.701 267.216 573.005 271.152 581.453 279.024C590.093 286.896 594.413 300.816 594.413 320.784V372.624C594.413 382.8 595.661 389.232 598.157 391.92C600.653 394.416 605.261 394.896 611.981 393.36V396.24ZM512.333 369.456C513.293 376.752 515.981 382.416 520.397 386.448C524.813 390.288 529.901 392.208 535.661 392.208C541.613 392.208 546.797 389.328 551.213 383.568V334.608L540.845 336.048C532.013 337.2 524.813 340.56 519.245 346.128C513.869 351.696 511.565 359.472 512.333 369.456ZM792.823 396.24V402C766.711 402 748.567 400.176 738.391 396.528C728.407 392.688 718.519 383.28 708.727 368.304L690.583 340.368L686.839 343.824V396.24H701.239V402H629.239V396.24H643.639V214.8H629.239V209.04H686.839V335.184L747.031 275.28H723.703V269.52H778.423V275.28H755.671L721.111 309.552L755.671 361.392C771.223 384.624 783.607 396.24 792.823 396.24ZM864.87 396.24H879.27V402H807.27V396.24H821.67V275.28H810.15V269.52H864.87V396.24ZM867.462 231.504C867.462 238.416 864.966 244.368 859.974 249.36C855.174 254.16 849.222 256.56 842.118 256.56C835.206 256.56 829.254 254.16 824.262 249.36C819.27 244.368 816.774 238.416 816.774 231.504C816.774 224.4 819.27 218.352 824.262 213.36C829.254 208.368 835.206 205.872 842.118 205.872C849.222 205.872 855.174 208.368 859.974 213.36C864.966 218.352 867.462 224.4 867.462 231.504Z" fill="black"/>
<rect x="10" y="10" width="1004" height="492" stroke="black" stroke-width="20"/>
</g>
<defs>
<clipPath id="clip0">
<path d="M0 0H1024V512H0V0Z" fill="white"/>
</clipPath>
</defs>
</svg>
