<svg width="820" height="360" viewBox="0 0 820 360" fill="none" xmlns="http://www.w3.org/2000/svg">
<rect width="820" height="360" fill="white"/>
<rect x="5" y="5" width="810" height="350" fill="white" stroke="#5333ED" stroke-width="10"/>
<path d="M379.372 194L381.794 186.412H378.726L379.574 182.821H382.883L384.336 178.139H381.269L382.157 174.547H385.466L387.646 167.767H390.915L388.736 174.547H392.771L394.951 167.767H398.18L396.041 174.547H399.067L398.22 178.139H394.91L393.458 182.821H396.525L395.677 186.412H392.327L389.906 194H386.637L389.058 186.412H385.022L382.601 194H379.372ZM386.153 182.821H390.188L391.641 178.139H387.605L386.153 182.821ZM399.183 194L400.071 189.56H405.358L408.506 174.103H403.824L404.51 170.632C405.936 170.417 407.147 170.134 408.143 169.785C409.138 169.408 410.107 168.937 411.048 168.372H415.165L410.887 189.56H415.609L414.721 194H399.183ZM427.708 194.484C426.659 194.484 425.69 194.296 424.802 193.919C423.941 193.516 423.188 192.937 422.542 192.184C421.897 191.404 421.385 190.435 421.009 189.278C420.659 188.121 420.484 186.789 420.484 185.282C420.484 182.457 420.807 179.968 421.453 177.816C422.125 175.637 422.986 173.82 424.036 172.368C425.112 170.888 426.323 169.771 427.668 169.018C429.013 168.264 430.372 167.888 431.744 167.888C432.793 167.888 433.749 168.089 434.61 168.493C435.498 168.87 436.251 169.448 436.87 170.228C437.515 171.009 438.013 171.977 438.363 173.134C438.74 174.291 438.928 175.637 438.928 177.17C438.928 179.995 438.592 182.498 437.919 184.677C437.273 186.83 436.426 188.632 435.376 190.085C434.327 191.538 433.13 192.641 431.784 193.395C430.439 194.121 429.08 194.484 427.708 194.484ZM428.071 190.247C428.798 190.247 429.511 189.897 430.21 189.197C430.91 188.471 431.529 187.489 432.067 186.251C432.605 185.013 433.036 183.574 433.358 181.933C433.708 180.264 433.883 178.489 433.883 176.605C433.883 175.018 433.668 173.874 433.237 173.175C432.807 172.475 432.202 172.125 431.421 172.125C430.695 172.125 429.982 172.489 429.282 173.215C428.583 173.942 427.964 174.924 427.426 176.161C426.888 177.399 426.444 178.852 426.094 180.52C425.771 182.188 425.61 183.964 425.61 185.847C425.61 187.435 425.825 188.565 426.255 189.238C426.686 189.91 427.291 190.247 428.071 190.247ZM448.242 194.484C447.193 194.484 446.225 194.296 445.337 193.919C444.476 193.516 443.722 192.937 443.077 192.184C442.431 191.404 441.92 190.435 441.543 189.278C441.193 188.121 441.018 186.789 441.018 185.282C441.018 182.457 441.341 179.968 441.987 177.816C442.659 175.637 443.52 173.82 444.57 172.368C445.646 170.888 446.857 169.771 448.202 169.018C449.547 168.264 450.906 167.888 452.278 167.888C453.328 167.888 454.283 168.089 455.144 168.493C456.032 168.87 456.785 169.448 457.404 170.228C458.05 171.009 458.548 171.977 458.897 173.134C459.274 174.291 459.462 175.637 459.462 177.17C459.462 179.995 459.126 182.498 458.453 184.677C457.808 186.83 456.96 188.632 455.911 190.085C454.861 191.538 453.664 192.641 452.319 193.395C450.973 194.121 449.615 194.484 448.242 194.484ZM448.606 190.247C449.332 190.247 450.045 189.897 450.745 189.197C451.444 188.471 452.063 187.489 452.601 186.251C453.139 185.013 453.57 183.574 453.893 181.933C454.243 180.264 454.417 178.489 454.417 176.605C454.417 175.018 454.202 173.874 453.772 173.175C453.341 172.475 452.736 172.125 451.956 172.125C451.229 172.125 450.516 172.489 449.816 173.215C449.117 173.942 448.498 174.924 447.96 176.161C447.422 177.399 446.978 178.852 446.628 180.52C446.305 182.188 446.144 183.964 446.144 185.847C446.144 187.435 446.359 188.565 446.79 189.238C447.22 189.91 447.825 190.247 448.606 190.247ZM476.162 175.919L476.647 172.125L477.858 165.708H483.387L477.696 194H473.216L473.297 191.377H473.176C472.261 192.318 471.252 193.072 470.149 193.637C469.046 194.202 467.97 194.484 466.92 194.484C465.144 194.484 463.759 193.852 462.763 192.587C461.768 191.323 461.27 189.507 461.27 187.139C461.27 185.229 461.566 183.453 462.158 181.812C462.75 180.143 463.544 178.69 464.539 177.453C465.535 176.215 466.678 175.246 467.97 174.547C469.261 173.847 470.593 173.498 471.965 173.498C472.88 173.498 473.687 173.726 474.387 174.184C475.113 174.614 475.665 175.193 476.041 175.919H476.162ZM469.342 189.964C470.014 189.964 470.714 189.762 471.44 189.359C472.194 188.928 472.92 188.148 473.62 187.018L475.032 179.915C474.71 179.242 474.292 178.758 473.781 178.462C473.297 178.166 472.826 178.018 472.369 178.018C471.669 178.018 470.996 178.233 470.351 178.664C469.705 179.094 469.127 179.686 468.615 180.439C468.131 181.193 467.741 182.081 467.445 183.103C467.149 184.125 467.001 185.242 467.001 186.453C467.001 187.664 467.203 188.552 467.606 189.117C468.037 189.682 468.615 189.964 469.342 189.964ZM488.952 194.484C487.176 194.484 485.791 193.852 484.795 192.587C483.8 191.323 483.302 189.507 483.302 187.139C483.302 185.229 483.598 183.453 484.19 181.812C484.782 180.143 485.575 178.69 486.571 177.453C487.567 176.215 488.71 175.246 490.002 174.547C491.293 173.847 492.625 173.498 493.997 173.498C494.912 173.498 495.773 173.74 496.58 174.224C497.387 174.681 497.979 175.314 498.356 176.121H498.437L499.324 173.982H503.724L499.728 194H495.248L495.329 191.377H495.208C494.293 192.318 493.284 193.072 492.181 193.637C491.078 194.202 490.002 194.484 488.952 194.484ZM491.374 189.964C492.046 189.964 492.759 189.762 493.513 189.359C494.293 188.928 495.006 188.148 495.652 187.018L497.064 179.915C496.741 179.242 496.324 178.758 495.813 178.462C495.329 178.166 494.858 178.018 494.401 178.018C493.701 178.018 493.028 178.233 492.383 178.664C491.737 179.094 491.158 179.686 490.647 180.439C490.163 181.193 489.773 182.081 489.477 183.103C489.181 184.125 489.033 185.242 489.033 186.453C489.033 187.664 489.235 188.552 489.638 189.117C490.069 189.682 490.647 189.964 491.374 189.964ZM505.772 201.83C505.395 201.83 504.925 201.749 504.36 201.588C503.795 201.426 503.31 201.238 502.907 201.022L504.602 197.067C505.059 197.336 505.557 197.471 506.095 197.471C506.821 197.471 507.521 197.202 508.194 196.664C508.866 196.152 509.431 195.453 509.889 194.565L510.373 193.556L506.902 173.982H512.391L513.319 183.022C513.427 183.883 513.508 184.865 513.561 185.969C513.615 187.072 513.656 188.094 513.683 189.036H513.844C514.274 188.094 514.718 187.085 515.176 186.009C515.633 184.933 516.077 183.937 516.508 183.022L520.705 173.982H526.073L515.257 194.444C514.557 195.655 513.857 196.718 513.158 197.632C512.485 198.547 511.772 199.314 511.019 199.933C510.265 200.552 509.458 201.022 508.597 201.345C507.736 201.668 506.795 201.83 505.772 201.83ZM529.585 194H525.024L530.715 165.708H536.244L534.912 172.125L533.903 175.879H533.984C534.872 175.152 535.814 174.574 536.809 174.143C537.805 173.713 538.8 173.498 539.796 173.498C541.572 173.498 542.957 174.13 543.953 175.394C544.948 176.659 545.446 178.475 545.446 180.843C545.446 182.753 545.15 184.543 544.558 186.211C543.966 187.852 543.173 189.291 542.177 190.529C541.181 191.767 540.038 192.735 538.746 193.435C537.482 194.135 536.164 194.484 534.791 194.484C533.876 194.484 533.029 194.256 532.249 193.798C531.495 193.314 530.93 192.668 530.554 191.861H530.473L529.585 194ZM537.415 178.018C536.796 178.018 536.096 178.206 535.316 178.583C534.563 178.933 533.89 179.578 533.298 180.52L531.764 188.067C532.06 188.74 532.437 189.224 532.894 189.52C533.379 189.816 533.876 189.964 534.388 189.964C535.087 189.964 535.76 189.749 536.406 189.318C537.051 188.888 537.616 188.296 538.101 187.543C538.612 186.789 539.016 185.901 539.312 184.879C539.607 183.856 539.755 182.74 539.755 181.529C539.755 180.318 539.54 179.43 539.11 178.865C538.679 178.3 538.114 178.018 537.415 178.018ZM552.296 194.484C550.843 194.484 549.808 194.135 549.189 193.435C548.57 192.735 548.261 191.78 548.261 190.569C548.261 189.87 548.355 189.049 548.543 188.108L553.023 165.708H558.552L553.992 188.35C553.938 188.565 553.911 188.726 553.911 188.834C553.911 188.915 553.911 189.009 553.911 189.117C553.911 189.466 553.978 189.708 554.113 189.843C554.274 189.978 554.462 190.045 554.678 190.045C554.812 190.045 554.92 190.045 555 190.045C555.081 190.045 555.216 190.018 555.404 189.964L555.243 194.04C554.893 194.175 554.476 194.283 553.992 194.363C553.507 194.444 552.942 194.484 552.296 194.484ZM566.841 194.484C565.658 194.484 564.595 194.296 563.653 193.919C562.711 193.516 561.891 192.951 561.191 192.224C560.519 191.498 559.994 190.637 559.617 189.641C559.267 188.619 559.093 187.489 559.093 186.251C559.093 184.314 559.415 182.565 560.061 181.004C560.707 179.417 561.554 178.072 562.604 176.968C563.68 175.865 564.891 175.018 566.236 174.426C567.581 173.807 568.94 173.498 570.312 173.498C571.469 173.498 572.519 173.699 573.46 174.103C574.429 174.48 575.25 175.031 575.922 175.758C576.595 176.484 577.12 177.359 577.496 178.381C577.873 179.377 578.061 180.493 578.061 181.731C578.061 183.668 577.738 185.43 577.093 187.018C576.447 188.578 575.586 189.91 574.51 191.013C573.46 192.117 572.263 192.978 570.918 193.596C569.572 194.188 568.214 194.484 566.841 194.484ZM567.447 190.045C568.12 190.045 568.752 189.843 569.344 189.439C569.963 189.009 570.501 188.43 570.958 187.704C571.442 186.978 571.819 186.117 572.088 185.121C572.357 184.125 572.492 183.036 572.492 181.852C572.492 180.614 572.25 179.659 571.765 178.986C571.308 178.287 570.608 177.937 569.667 177.937C568.994 177.937 568.348 178.152 567.729 178.583C567.137 178.986 566.613 179.551 566.155 180.278C565.698 181.004 565.335 181.879 565.066 182.901C564.797 183.897 564.662 184.973 564.662 186.13C564.662 187.341 564.891 188.296 565.348 188.995C565.806 189.695 566.505 190.045 567.447 190.045ZM586.303 202.596C585.092 202.596 583.841 202.354 582.549 201.87C581.258 201.413 580.047 200.713 578.917 199.771L581.298 196.099C582.078 196.691 582.899 197.188 583.76 197.592C584.621 197.996 585.522 198.197 586.464 198.197C589.101 198.197 590.81 196.798 591.59 194L592.639 190.448C591.751 191.39 590.783 192.117 589.733 192.628C588.711 193.112 587.635 193.354 586.505 193.354C584.809 193.354 583.41 192.789 582.307 191.659C581.204 190.502 580.652 188.74 580.652 186.372C580.652 184.569 580.935 182.888 581.5 181.327C582.092 179.767 582.859 178.408 583.8 177.251C584.769 176.094 585.886 175.179 587.15 174.507C588.415 173.834 589.733 173.498 591.105 173.498C592.02 173.498 592.868 173.74 593.648 174.224C594.428 174.681 595.007 175.314 595.384 176.121H595.505L596.352 173.982H600.832L596.917 193.677C596.298 196.664 595.074 198.897 593.245 200.377C591.442 201.857 589.128 202.596 586.303 202.596ZM588.644 188.874C589.316 188.874 590.029 188.686 590.783 188.309C591.536 187.933 592.236 187.247 592.881 186.251L594.132 179.915C593.783 179.242 593.366 178.758 592.881 178.462C592.424 178.166 591.966 178.018 591.509 178.018C590.81 178.018 590.15 178.22 589.531 178.623C588.913 179 588.375 179.538 587.917 180.238C587.46 180.91 587.083 181.717 586.787 182.659C586.518 183.574 586.383 184.569 586.383 185.646C586.383 186.749 586.585 187.569 586.989 188.108C587.392 188.619 587.944 188.874 588.644 188.874ZM610.433 194.484C609.33 194.484 608.294 194.309 607.326 193.96C606.384 193.583 605.563 193.045 604.864 192.345C604.164 191.619 603.613 190.744 603.209 189.722C602.805 188.7 602.604 187.543 602.604 186.251C602.604 184.529 602.9 182.901 603.492 181.368C604.11 179.807 604.945 178.448 605.994 177.291C607.07 176.107 608.321 175.179 609.747 174.507C611.2 173.834 612.747 173.498 614.389 173.498C615.653 173.498 616.729 173.753 617.617 174.264C618.532 174.776 619.245 175.341 619.756 175.959L616.689 179.229C616.285 178.798 615.882 178.475 615.478 178.26C615.075 178.045 614.59 177.937 614.025 177.937C613.218 177.937 612.465 178.152 611.765 178.583C611.066 179.013 610.447 179.605 609.909 180.359C609.397 181.112 608.994 181.986 608.698 182.982C608.402 183.951 608.254 185 608.254 186.13C608.254 187.341 608.536 188.296 609.102 188.995C609.667 189.695 610.514 190.045 611.644 190.045C612.344 190.045 612.936 189.91 613.42 189.641C613.931 189.372 614.402 189.076 614.833 188.753L617.133 192.143C616.38 192.709 615.465 193.247 614.389 193.758C613.339 194.242 612.021 194.484 610.433 194.484ZM619.892 194L625.583 165.708H631.112L629.578 173.094L628.69 176.323H628.852C629.74 175.542 630.708 174.883 631.757 174.345C632.807 173.78 633.937 173.498 635.148 173.498C636.816 173.498 638.027 173.942 638.78 174.829C639.533 175.69 639.91 176.955 639.91 178.623C639.91 179.081 639.883 179.551 639.829 180.036C639.802 180.493 639.722 180.977 639.587 181.489L637.085 194H631.556L633.937 182.175C634.018 181.771 634.085 181.421 634.139 181.125C634.219 180.829 634.26 180.547 634.26 180.278C634.26 178.906 633.574 178.22 632.201 178.22C631.583 178.22 630.937 178.435 630.264 178.865C629.618 179.269 628.865 179.915 628.004 180.803L625.421 194H619.892ZM648.26 194.484C646.484 194.484 645.099 193.852 644.103 192.587C643.108 191.323 642.61 189.507 642.61 187.139C642.61 185.229 642.906 183.453 643.498 181.812C644.09 180.143 644.884 178.69 645.879 177.453C646.875 176.215 648.018 175.246 649.31 174.547C650.601 173.847 651.933 173.498 653.305 173.498C654.22 173.498 655.081 173.74 655.888 174.224C656.695 174.681 657.287 175.314 657.664 176.121H657.745L658.633 173.982H663.032L659.036 194H654.556L654.637 191.377H654.516C653.601 192.318 652.592 193.072 651.489 193.637C650.386 194.202 649.31 194.484 648.26 194.484ZM650.682 189.964C651.354 189.964 652.067 189.762 652.821 189.359C653.601 188.928 654.314 188.148 654.96 187.018L656.372 179.915C656.05 179.242 655.633 178.758 655.121 178.462C654.637 178.166 654.166 178.018 653.709 178.018C653.009 178.018 652.337 178.233 651.691 178.664C651.045 179.094 650.467 179.686 649.955 180.439C649.471 181.193 649.081 182.081 648.785 183.103C648.489 184.125 648.341 185.242 648.341 186.453C648.341 187.664 648.543 188.552 648.946 189.117C649.377 189.682 649.955 189.964 650.682 189.964ZM669.156 194.484C667.704 194.484 666.668 194.135 666.049 193.435C665.43 192.735 665.121 191.78 665.121 190.569C665.121 189.87 665.215 189.049 665.403 188.108L669.883 165.708H675.412L670.852 188.35C670.798 188.565 670.771 188.726 670.771 188.834C670.771 188.915 670.771 189.009 670.771 189.117C670.771 189.466 670.838 189.708 670.973 189.843C671.134 189.978 671.322 190.045 671.538 190.045C671.672 190.045 671.78 190.045 671.861 190.045C671.941 190.045 672.076 190.018 672.264 189.964L672.103 194.04C671.753 194.175 671.336 194.283 670.852 194.363C670.367 194.444 669.802 194.484 669.156 194.484ZM680.271 194.484C678.818 194.484 677.782 194.135 677.163 193.435C676.544 192.735 676.235 191.78 676.235 190.569C676.235 189.87 676.329 189.049 676.518 188.108L680.997 165.708H686.527L681.966 188.35C681.912 188.565 681.885 188.726 681.885 188.834C681.885 188.915 681.885 189.009 681.885 189.117C681.885 189.466 681.953 189.708 682.087 189.843C682.249 189.978 682.437 190.045 682.652 190.045C682.787 190.045 682.894 190.045 682.975 190.045C683.056 190.045 683.19 190.018 683.379 189.964L683.217 194.04C682.867 194.175 682.45 194.283 681.966 194.363C681.482 194.444 680.917 194.484 680.271 194.484ZM687.027 185.928C687.027 184.072 687.35 182.39 687.995 180.883C688.668 179.35 689.529 178.045 690.578 176.968C691.655 175.865 692.852 175.018 694.17 174.426C695.489 173.807 696.821 173.498 698.166 173.498C699.35 173.498 700.359 173.699 701.193 174.103C702.027 174.48 702.7 175.018 703.211 175.717C703.749 176.39 704.126 177.184 704.341 178.099C704.583 178.986 704.704 179.955 704.704 181.004C704.704 181.489 704.664 181.973 704.583 182.457C704.502 182.915 704.408 183.359 704.3 183.789C704.193 184.193 704.072 184.556 703.937 184.879C703.83 185.175 703.735 185.404 703.655 185.565H692.273C692.193 187.233 692.583 188.444 693.444 189.197C694.332 189.951 695.435 190.327 696.753 190.327C697.372 190.327 698.018 190.179 698.691 189.883C699.363 189.587 699.955 189.265 700.466 188.915L702.404 192.386C701.596 192.951 700.587 193.448 699.377 193.879C698.166 194.283 696.78 194.484 695.22 194.484C694.009 194.484 692.892 194.296 691.87 193.919C690.874 193.516 690.013 192.951 689.287 192.224C688.587 191.471 688.036 190.569 687.632 189.52C687.229 188.471 687.027 187.273 687.027 185.928ZM692.717 182.175H699.982C700.117 181.717 700.184 181.22 700.184 180.681C700.184 179.874 699.982 179.188 699.578 178.623C699.202 178.031 698.502 177.735 697.48 177.735C696.538 177.735 695.623 178.112 694.735 178.865C693.847 179.592 693.175 180.695 692.717 182.175ZM706.443 194L710.398 173.982H714.878L714.798 176.646H714.959C715.955 175.785 717.004 175.045 718.107 174.426C719.21 173.807 720.407 173.498 721.699 173.498C723.367 173.498 724.578 173.942 725.331 174.829C726.085 175.69 726.461 176.955 726.461 178.623C726.461 179.081 726.434 179.551 726.381 180.036C726.327 180.493 726.246 180.977 726.138 181.489L723.636 194H718.107L720.488 182.175C720.569 181.771 720.636 181.421 720.69 181.125C720.771 180.829 720.811 180.547 720.811 180.278C720.811 178.906 720.125 178.22 718.753 178.22C718.134 178.22 717.488 178.435 716.816 178.865C716.17 179.269 715.416 179.915 714.555 180.803L711.972 194H706.443ZM735.048 202.596C733.837 202.596 732.586 202.354 731.295 201.87C730.003 201.413 728.792 200.713 727.662 199.771L730.044 196.099C730.824 196.691 731.644 197.188 732.505 197.592C733.366 197.996 734.268 198.197 735.21 198.197C737.846 198.197 739.555 196.798 740.335 194L741.384 190.448C740.497 191.39 739.528 192.117 738.479 192.628C737.456 193.112 736.38 193.354 735.25 193.354C733.555 193.354 732.156 192.789 731.053 191.659C729.949 190.502 729.398 188.74 729.398 186.372C729.398 184.569 729.68 182.888 730.245 181.327C730.837 179.767 731.604 178.408 732.546 177.251C733.514 176.094 734.631 175.179 735.896 174.507C737.16 173.834 738.479 173.498 739.851 173.498C740.766 173.498 741.613 173.74 742.393 174.224C743.174 174.681 743.752 175.314 744.129 176.121H744.25L745.097 173.982H749.577L745.663 193.677C745.044 196.664 743.819 198.897 741.99 200.377C740.187 201.857 737.873 202.596 735.048 202.596ZM737.389 188.874C738.062 188.874 738.775 188.686 739.528 188.309C740.281 187.933 740.981 187.247 741.627 186.251L742.878 179.915C742.528 179.242 742.111 178.758 741.627 178.462C741.169 178.166 740.712 178.018 740.254 178.018C739.555 178.018 738.896 178.22 738.277 178.623C737.658 179 737.12 179.538 736.662 180.238C736.205 180.91 735.828 181.717 735.532 182.659C735.263 183.574 735.129 184.569 735.129 185.646C735.129 186.749 735.331 187.569 735.734 188.108C736.138 188.619 736.689 188.874 737.389 188.874ZM751.349 185.928C751.349 184.072 751.672 182.39 752.318 180.883C752.99 179.35 753.851 178.045 754.901 176.968C755.977 175.865 757.174 175.018 758.493 174.426C759.811 173.807 761.143 173.498 762.488 173.498C763.672 173.498 764.681 173.699 765.515 174.103C766.349 174.48 767.022 175.018 767.533 175.717C768.071 176.39 768.448 177.184 768.663 178.099C768.905 178.986 769.026 179.955 769.026 181.004C769.026 181.489 768.986 181.973 768.905 182.457C768.825 182.915 768.73 183.359 768.623 183.789C768.515 184.193 768.394 184.556 768.259 184.879C768.152 185.175 768.058 185.404 767.977 185.565H756.596C756.515 187.233 756.905 188.444 757.766 189.197C758.654 189.951 759.757 190.327 761.076 190.327C761.694 190.327 762.34 190.179 763.013 189.883C763.685 189.587 764.277 189.265 764.789 188.915L766.726 192.386C765.919 192.951 764.91 193.448 763.699 193.879C762.488 194.283 761.102 194.484 759.542 194.484C758.331 194.484 757.215 194.296 756.192 193.919C755.197 193.516 754.336 192.951 753.609 192.224C752.91 191.471 752.358 190.569 751.954 189.52C751.551 188.471 751.349 187.273 751.349 185.928ZM757.04 182.175H764.304C764.439 181.717 764.506 181.22 764.506 180.681C764.506 179.874 764.304 179.188 763.901 178.623C763.524 178.031 762.824 177.735 761.802 177.735C760.86 177.735 759.946 178.112 759.058 178.865C758.17 179.592 757.497 180.695 757.04 182.175Z" fill="#5333ED"/>
<path d="M310.71 199.635V186.906H298.404V178.419H310.71V165.69H319.479V178.419H331.784V186.906H319.479V199.635H310.71Z" fill="black"/>
<g clip-path="url(#clip0)">
<path d="M61 132H252V227.5H61V132Z" fill="white"/>
<path d="M81.7936 198.07C81.7936 200.792 82.098 202.762 82.7069 203.979C83.3157 205.161 84.2826 205.752 85.6077 205.752C86.9685 205.752 88.1683 204.749 89.2068 202.744C90.2454 200.702 90.7647 197.855 90.7647 194.202C90.7647 190.514 90.2096 187.684 89.0994 185.715C88.025 183.745 86.7537 182.76 85.2854 182.76C83.817 182.76 82.6531 183.602 81.7936 185.285V198.07ZM94.4175 204.57C93.0925 205.43 91.8032 206.038 90.5498 206.396C89.2964 206.755 88.0608 206.934 86.8432 206.934C85.6614 206.934 84.5691 206.719 83.5664 206.289C82.5636 205.823 81.7578 205.34 81.149 204.839C80.576 204.301 79.9314 203.818 79.2151 203.388C78.4989 202.923 77.8184 202.69 77.1738 202.69C76.5292 202.69 75.9562 203.048 75.4548 203.764C74.9893 204.481 74.7565 205.376 74.7565 206.45H73.7358V171.533H71.0499V170.459H81.7936V183.673C82.3666 182.707 83.2978 181.954 84.587 181.417C85.9121 180.844 87.2909 180.558 88.7234 180.558C91.4451 180.558 93.8087 181.757 95.8142 184.157C97.8555 186.521 98.8762 189.833 98.8762 194.095C98.8762 196.602 98.4644 198.751 97.6407 200.541C96.817 202.332 95.7426 203.675 94.4175 204.57ZM128.67 205.376C128.311 205.734 127.631 206.056 126.628 206.343C125.625 206.593 124.462 206.719 123.137 206.719C120.2 206.719 118.356 205.841 117.603 204.087C115.813 205.949 113.073 206.88 109.385 206.88C107.415 206.88 105.785 206.432 104.496 205.537C103.243 204.606 102.616 203.245 102.616 201.454C102.616 199.055 103.547 197.211 105.409 195.921C107.272 194.596 110.531 193.665 115.186 193.128L117.335 192.859V190.227C117.335 187.111 117.102 185.016 116.637 183.942C116.171 182.868 115.24 182.33 113.843 182.33C112.482 182.33 111.605 182.527 111.211 182.921C110.817 183.28 110.674 183.709 110.781 184.211C110.889 184.676 111.068 185.303 111.318 186.091C111.569 186.879 111.694 187.505 111.694 187.971C111.694 189.081 111.3 190.03 110.513 190.818C109.761 191.57 108.829 191.946 107.719 191.946C106.645 191.946 105.714 191.57 104.926 190.818C104.138 190.03 103.744 189.081 103.744 187.971C103.744 186.145 104.675 184.587 106.537 183.297C108.435 181.972 111.247 181.31 114.971 181.31C118.732 181.31 121.4 182.044 122.975 183.512C124.587 184.981 125.393 187.577 125.393 191.302V200.971C125.393 202.869 125.625 204.069 126.091 204.57C126.557 205.036 127.416 205.125 128.67 204.839V205.376ZM110.083 200.38C110.262 201.741 110.763 202.797 111.587 203.549C112.411 204.266 113.36 204.624 114.434 204.624C115.544 204.624 116.511 204.087 117.335 203.012V193.88L115.401 194.149C113.754 194.363 112.411 194.99 111.372 196.029C110.369 197.067 109.94 198.518 110.083 200.38ZM142.632 205.376H145.318V206.45H131.888V205.376H134.574V171.533H131.888V170.459H142.632V205.376ZM175.149 205.376C174.791 205.734 174.11 206.056 173.108 206.343C172.105 206.593 170.941 206.719 169.616 206.719C166.679 206.719 164.835 205.841 164.083 204.087C162.292 205.949 159.553 206.88 155.864 206.88C153.894 206.88 152.265 206.432 150.975 205.537C149.722 204.606 149.095 203.245 149.095 201.454C149.095 199.055 150.026 197.211 151.889 195.921C153.751 194.596 157.01 193.665 161.665 193.128L163.814 192.859V190.227C163.814 187.111 163.581 185.016 163.116 183.942C162.65 182.868 161.719 182.33 160.322 182.33C158.962 182.33 158.084 182.527 157.69 182.921C157.296 183.28 157.153 183.709 157.261 184.211C157.368 184.676 157.547 185.303 157.798 186.091C158.048 186.879 158.174 187.505 158.174 187.971C158.174 189.081 157.78 190.03 156.992 190.818C156.24 191.57 155.309 191.946 154.199 191.946C153.124 191.946 152.193 191.57 151.405 190.818C150.617 190.03 150.223 189.081 150.223 187.971C150.223 186.145 151.154 184.587 153.017 183.297C154.915 181.972 157.726 181.31 161.451 181.31C165.211 181.31 167.879 182.044 169.455 183.512C171.066 184.981 171.872 187.577 171.872 191.302V200.971C171.872 202.869 172.105 204.069 172.57 204.57C173.036 205.036 173.895 205.125 175.149 204.839V205.376ZM156.562 200.38C156.741 201.741 157.243 202.797 158.066 203.549C158.89 204.266 159.839 204.624 160.913 204.624C162.024 204.624 162.991 204.087 163.814 203.012V193.88L161.88 194.149C160.233 194.363 158.89 194.99 157.851 196.029C156.849 197.067 156.419 198.518 156.562 200.38ZM208.88 205.376V206.45C204.01 206.45 200.625 206.11 198.727 205.43C196.865 204.713 195.021 202.958 193.194 200.165L189.81 194.954L189.112 195.599V205.376H191.797V206.45H178.368V205.376H181.054V171.533H178.368V170.459H189.112V193.987L200.339 182.814H195.988V181.74H206.194V182.814H201.95L195.504 189.206L201.95 198.876C204.851 203.209 207.161 205.376 208.88 205.376ZM222.319 205.376H225.004V206.45H211.575V205.376H214.261V182.814H212.112V181.74H222.319V205.376ZM222.802 174.649C222.802 175.938 222.336 177.048 221.405 177.979C220.51 178.875 219.4 179.322 218.075 179.322C216.785 179.322 215.675 178.875 214.744 177.979C213.813 177.048 213.347 175.938 213.347 174.649C213.347 173.324 213.813 172.196 214.744 171.264C215.675 170.333 216.785 169.868 218.075 169.868C219.4 169.868 220.51 170.333 221.405 171.264C222.336 172.196 222.802 173.324 222.802 174.649Z" fill="black"/>
</g>
<path d="M61 132V128.27H57.2695V132H61ZM252 132H255.73V128.27H252V132ZM252 227.5V231.23H255.73V227.5H252ZM61 227.5H57.2695V231.23H61V227.5ZM61 135.73H252V128.27H61V135.73ZM248.27 132V227.5H255.73V132H248.27ZM252 223.77H61V231.23H252V223.77ZM64.7305 227.5V132H57.2695V227.5H64.7305Z" fill="black"/>
<defs>
<clipPath id="clip0">
<path d="M61 132H252V227.5H61V132Z" fill="white"/>
</clipPath>
</defs>
</svg>
